REM MD5 506e97ac4f5bafd327480747f74cfb0f
FILE "Hyper PlayStation Re-mix 1999 No. 3 (Japan).bin" BINARY
  TRACK 01 MODE2/2352
    INDEX 01 00:00:00
  TRACK 02 AUDIO
    INDEX 00 61:41:42
    INDEX 01 61:44:42
  TRACK 03 AUDIO
    INDEX 00 61:49:17
    INDEX 01 61:52:17
  TRACK 04 AUDIO
    INDEX 00 62:00:74
    INDEX 01 62:04:74
  TRACK 05 AUDIO
    INDEX 00 62:54:60
    INDEX 01 62:59:60
REM LEADOUT 66:31:50
